<?xml version="1.0" standalone="no"?><!DOCTYPE svg PUBLIC "-//W3C//DTD SVG 1.1//EN" "http://www.w3.org/Graphics/SVG/1.1/DTD/svg11.dtd"><svg t="1612957017698" class="icon" viewBox="0 0 1024 1024" version="1.1" xmlns="http://www.w3.org/2000/svg" p-id="3096" xmlns:xlink="http://www.w3.org/1999/xlink" width="200" height="200"><defs><style type="text/css"></style></defs><path d="M542.18164063 300.76367187h-60.34570313v181.05468751H300.76367187v60.35449218h181.06347657v181.0546875h60.34570312v-181.0546875h181.04589844v-60.35449218H542.18164063v-181.05468751zM512.00878906 118.13574219C294.47070312 118.13574219 118.13574219 294.47070312 118.13574219 512c0 217.52050781 176.34375 393.86425781 393.87304687 393.86425781 217.52050781 0 393.85546875-176.33496094 393.85546875-393.86425781S729.52929688 118.13574219 512.00878906 118.13574219z m0 730.30957031C326.19921875 848.4453125 175.5546875 697.80957031 175.5546875 512c0-185.81835938 150.64453125-336.4453125 336.45410156-336.4453125S848.4453125 326.19042969 848.4453125 512c0 185.80957031-150.62695313 336.4453125-336.43652344 336.4453125z" p-id="3097"></path></svg>