<?xml version="1.0" standalone="no"?><!DOCTYPE svg PUBLIC "-//W3C//DTD SVG 1.1//EN" "http://www.w3.org/Graphics/SVG/1.1/DTD/svg11.dtd"><svg t="1612774075940" class="icon" viewBox="0 0 1024 1024" version="1.1" xmlns="http://www.w3.org/2000/svg" p-id="5224" xmlns:xlink="http://www.w3.org/1999/xlink" width="200" height="200"><defs><style type="text/css"></style></defs><path d="M708.266667 337.066667h-89.6v-34.133334A4.266667 4.266667 0 0 0 614.4 298.666667h-29.866667a4.266667 4.266667 0 0 0-4.266666 4.266666v34.133334h-136.533334v-34.133334a4.266667 4.266667 0 0 0-4.266666-4.266666H409.6a4.266667 4.266667 0 0 0-4.266667 4.266666v34.133334H315.733333a17.066667 17.066667 0 0 0-17.066666 17.066666V708.266667a17.066667 17.066667 0 0 0 17.066666 17.066666h392.533334a17.066667 17.066667 0 0 0 17.066666-17.066666V354.133333a17.066667 17.066667 0 0 0-17.066666-17.066666z m-21.333334 349.866666H337.066667v-202.683733h349.866666v202.683733z m-349.866666-238.933333V375.466667h68.266666v25.6c0 2.3552 1.911467 4.266667 4.266667 4.266666h29.866667A4.266667 4.266667 0 0 0 443.733333 401.066667V375.466667h136.533334v25.6c0 2.3552 1.911467 4.266667 4.266666 4.266666H614.4a4.266667 4.266667 0 0 0 4.266667-4.266666V375.466667h68.266666v72.533333H337.066667z" fill="#A6A6A6" p-id="5225"></path></svg>