<?xml version="1.0" standalone="no"?><!DOCTYPE svg PUBLIC "-//W3C//DTD SVG 1.1//EN" "http://www.w3.org/Graphics/SVG/1.1/DTD/svg11.dtd"><svg t="1613203826141" class="icon" viewBox="0 0 1024 1024" version="1.1" xmlns="http://www.w3.org/2000/svg" p-id="16753" xmlns:xlink="http://www.w3.org/1999/xlink" width="200" height="200"><defs><style type="text/css"></style></defs><path d="M548.57 539.41c65.83-47.54 109.72-124.35 109.72-208.46 0-142.63-113.37-256-256-256s-256.01 113.37-256.01 256c0 87.77 43.89 164.57 109.72 208.46-149.94 58.51-256 204.8-256 376.69v36.57h73.14V916.1c0-182.86 146.29-329.15 329.15-329.15S731.43 733.24 731.43 916.09c0 10.97 0 25.6-3.66 36.57h73.14v-36.57c3.66-171.88-102.39-318.17-252.34-376.68z m-146.28-25.6c-102.4 0-182.86-80.46-182.86-182.86 0-102.4 80.46-182.86 182.86-182.86 102.4 0 182.86 80.46 182.86 182.86 0 102.4-80.46 182.86-182.86 182.86z m0 0" p-id="16754"></path><path d="M819.2 502.84c36.57-32.91 58.51-80.46 58.51-135.31 0-91.43-65.83-168.23-153.6-179.2l-10.97 73.14c51.2 7.32 91.43 54.86 91.43 109.71 0 62.17-47.54 109.72-109.72 109.72v73.14c142.63 0 256.01 113.37 256.01 256 0 10.97 0 25.6-3.66 36.57h73.14c0-10.97 3.66-25.6 3.66-36.57 0-142.63-84.11-259.66-204.8-307.2z m0 0" p-id="16755"></path></svg>