<?xml version="1.0" standalone="no"?><!DOCTYPE svg PUBLIC "-//W3C//DTD SVG 1.1//EN" "http://www.w3.org/Graphics/SVG/1.1/DTD/svg11.dtd"><svg t="1613288543714" class="icon" viewBox="0 0 1024 1024" version="1.1" xmlns="http://www.w3.org/2000/svg" p-id="26515" xmlns:xlink="http://www.w3.org/1999/xlink" width="200" height="200"><defs><style type="text/css"></style></defs><path d="M947.718308 1023.987428c-93.555391 0-260.76077-124.356382-435.718779-408.584573C326.460227 916.917317 149.616442 1038.549801 60.146897 1022.62548A70.087969 70.087969 0 0 1 1.373578 963.85216C-14.550744 874.382615 107.186506 697.538831 408.596202 511.999529 107.186506 326.460226-14.550744 149.616442 1.373578 60.146897A70.2975 70.2975 0 0 1 60.146897 1.373578C149.616442-14.550744 326.460227 107.186505 511.999529 408.596202 697.538831 107.186505 874.487381-14.550744 963.852161 1.373578a70.087969 70.087969 0 0 1 58.773319 58.773319c15.924322 89.469545-105.708163 266.313329-407.53692 451.852632C916.917317 697.538831 1038.549802 874.382615 1022.62548 963.85216A69.983204 69.983204 0 0 1 963.852161 1022.62548a88.212362 88.212362 0 0 1-16.133853 1.361948zM540.705214 540.705214C736.197218 875.011207 905.602668 969.090424 953.375633 960.813967c5.447794-1.047653 6.809743-2.409601 7.75263-7.857395 8.066926-47.45867-86.117056-216.759354-420.423049-412.251358z m-57.306605 0C149.092616 736.197217 54.803868 905.497902 62.870794 953.375633c0.942887 5.447794 2.304836 6.809743 7.857396 7.857395 47.6682 7.962161 217.178415-86.221821 412.670419-420.527814zM946.670655 62.870794c-54.687474 0-218.330833 99.527011-405.965441 420.527814C875.011207 287.906605 969.19519 118.501155 960.709202 71.147251c-0.942887-5.447794-2.304836-6.914508-7.75263-7.857396a39.077448 39.077448 0 0 0-6.285917-0.419061z m-869.551783 0a37.820264 37.820264 0 0 0-6.181152 0c-5.55256 0.942887-6.914508 2.409601-7.857395 7.857396-8.485987 47.353904 85.80276 216.759354 420.108753 412.251357C295.659236 162.397805 132.120641 62.870794 77.328402 62.870794z" fill="" p-id="26516"></path></svg>