<?xml version="1.0" standalone="no"?><!DOCTYPE svg PUBLIC "-//W3C//DTD SVG 1.1//EN" "http://www.w3.org/Graphics/SVG/1.1/DTD/svg11.dtd"><svg t="1612710622104" class="icon" viewBox="0 0 1239 1024" version="1.1" xmlns="http://www.w3.org/2000/svg" p-id="7392" xmlns:xlink="http://www.w3.org/1999/xlink" width="241.9921875" height="200"><defs><style type="text/css"></style></defs><path d="M 1111.75 485.148 a 117.087 117.087 0 0 0 -94.5319 -114.74 V 157.845 a 65.2471 65.2471 0 0 0 -65.0539 -65.0539 H 248.761 a 65.2471 65.2471 0 0 0 -65.0539 65.0539 v 214.79 a 116.894 116.894 0 0 0 0 229.091 V 782.974 a 65.3183 65.3183 0 0 0 48.7905 63.021 a 116.894 116.894 0 0 0 227.283 2.03294 h 288.576 a 116.894 116.894 0 0 0 227.832 -4.62494 A 65.2878 65.2878 0 0 0 1017.21 782.974 V 599.889 A 117.087 117.087 0 0 0 1111.75 485.148 Z M 248.873 157.845 h 703.173 l 0.111812 0.111812 V 463.295 H 248.761 V 157.958 a 1.15878 1.15878 0 0 1 0.111812 -0.111812 Z M 952.156 623.389 H 801.72 v 65.0539 h 150.437 v 94.4203 l -0.111812 0.111811 H 248.873 l -0.111812 -0.111811 V 688.442 h 151.454 v -65.0539 H 248.761 v -95.04 h 703.397 Z M 155.246 487.181 a 51.9009 51.9009 0 0 1 28.4612 -46.2493 v 92.4987 A 51.9009 51.9009 0 0 1 155.246 487.181 Z m 191.096 384.225 a 51.8399 51.8399 0 0 1 -43.3016 -23.3788 h 86.6031 a 51.8399 51.8399 0 0 1 -43.3016 23.3788 Z m 515.35 0 a 51.8399 51.8399 0 0 1 -43.3016 -23.3788 h 86.6031 a 51.8399 51.8399 0 0 1 -43.3016 23.3788 Z m 155.52 -339.501 v -93.5156 a 51.8399 51.8399 0 0 1 0 93.5156 Z" p-id="7393"></path></svg>